<svg width="173" height="33" viewBox="0 0 173 33" fill="none" xmlns="http://www.w3.org/2000/svg">
<path d="M4.19039 32.6066L6.59219 25.7282H16.8126L19.2017 32.6066H23.3921L13.9765 6.61607H9.41559L0 32.6066H4.19039ZM7.74199 22.4287L11.6002 11.337H11.8046L15.6628 22.4287H7.74199Z" fill="white"/>
<path d="M26.8638 32.6066H30.6837V20.7027C30.6837 18.1519 32.6639 16.3118 35.3723 16.3118C36.1644 16.3118 37.0587 16.4514 37.3653 16.5402V12.9107C36.9821 12.8599 36.2283 12.8118 35.7428 12.8118C33.4432 12.8118 31.4758 14.1163 30.0604 16.2102H29.8186V13.0499H26.8638V32.6066Z" fill="white"/>
<path d="M48.2342 33C53.766 33 57.3815 28.9771 57.3815 22.949C57.3815 16.8828 53.766 12.8599 48.2342 12.8599C42.7023 12.8599 39.0868 16.8828 39.0868 22.949C39.0868 28.9771 42.7023 33 48.2342 33ZM48.2469 29.8146C44.6314 29.8146 42.9451 26.68 42.9451 22.9363C42.9451 19.2052 44.6314 16.0326 48.2469 16.0326C51.8369 16.0326 53.5232 19.2052 53.5232 22.9363C53.5232 26.68 51.8369 29.8146 48.2469 29.8146Z" fill="white"/>
<path d="M74.0759 24.5226C74.0887 27.8349 71.6103 29.4085 69.464 29.4085C67.1005 29.4085 65.4652 27.708 65.4652 25.0556V13.0499H61.6453V25.5125C61.6453 30.3476 64.3154 32.8604 68.0842 32.8604C71.0353 32.8604 73.0411 31.3121 74.0759 28.2915H74.2997V32.6066H78.1196V13.0499H74.0759V24.5226Z" fill="white"/>
<path d="M86.8611 32.6066H90.6810V20.7027C90.6810 18.1519 92.6612 16.3118 95.3696 16.3118C96.1617 16.3118 97.056 16.4514 97.3626 16.5402V12.9107C96.9794 12.8599 96.2256 12.8118 95.7401 12.8118C93.4405 12.8118 91.4731 14.1163 90.0577 16.2102H89.8159V13.0499H86.8611V32.6066Z" fill="white"/>
<path d="M111.888 32.9873C116.594 32.9873 120.136 30.4006 120.136 26.7724C120.136 23.0788 117.105 21.7627 114.168 20.8519C112.542 20.2446 111.452 19.6628 111.452 18.648C111.452 17.5896 112.306 16.9569 113.718 16.9569C115.191 16.9569 116.148 17.6152 116.148 19.3429H119.715C119.715 15.7565 117.028 12.8599 113.692 12.8599C109.622 12.8599 107.129 15.4719 107.129 18.6226C107.129 22.2479 110.148 23.5895 113.123 24.5002C114.699 25.0945 115.789 25.6889 115.789 26.7724C115.789 27.8349 114.826 28.5966 113.51 28.5966C111.85 28.5966 110.563 27.6859 110.563 25.9582H106.996C106.996 29.9316 109.721 32.9873 111.888 32.9873Z" fill="white"/>
<path d="M126.6 1.0491H129.343V8.78195H133.141V1.0491H135.884V14.4495H133.141V11.0044H129.343V14.4495H126.6V1.0491Z" fill="white"/>
<path d="M139.94 9.53895C139.94 12.499 142.173 14.5086 145.049 14.5086C147.923 14.5086 150.156 12.499 150.156 9.53895C150.156 6.57893 147.923 4.56934 145.049 4.56934C142.173 4.56934 139.94 6.57893 139.94 9.53895ZM408.167 9.53895C408.167 8.30425 146.679 7.09951 145.049 7.09951C143.418 7.09951 142.274 8.30425 142.274 9.53895C142.274 10.7737 143.418 11.9784 145.049 11.9784C146.679 11.9784 147.822 10.7737 147.822 9.53895Z" fill="white"/>
<path d="M157.422 0.995346C157.422 0.447084 157.859 0 158.395 0C158.93 0 159.367 0.447084 159.367 0.995346C159.367 1.54361 158.93 1.99069 158.395 1.99069C157.859 1.99069 157.422 1.54361 157.422 0.995346ZM157.912 14.4495V3.02111H158.878V14.4495H157.912Z" fill="white"/>
<path d="M172.76 9.538C172.76 12.4989 170.527 14.5085 167.653 14.5085C164.779 14.5085 162.546 12.4989 162.546 9.538C162.546 6.5771 164.779 4.56751 167.653 4.56751C170.527 4.56751 172.76 6.5771 172.76 9.538ZM170.426 9.538C170.426 8.30427 169.281 7.09953 167.653 7.09953C166.024 7.09953 164.88 8.30427 164.88 9.538C164.88 10.7717 166.024 11.9765 167.653 11.9765C169.281 11.9765 170.426 10.7717 170.426 9.538Z" fill="white"/>
</svg>